<svg width="42" height="42" viewBox="0 0 42 42" fill="none" xmlns="http://www.w3.org/2000/svg">
<path d="M10.5 7C8.567 7 7 8.567 7 10.5V15.75C7 17.683 8.567 19.25 10.5 19.25H15.75C17.683 19.25 19.25 17.683 19.25 15.75V10.5C19.25 8.567 17.683 7 15.75 7H10.5Z" fill="white"/>
<path d="M10.5 22.75C8.567 22.75 7 24.317 7 26.25V31.5C7 33.433 8.567 35 10.5 35H15.75C17.683 35 19.25 33.433 19.25 31.5V26.25C19.25 24.317 17.683 22.75 15.75 22.75H10.5Z" fill="white"/>
<path d="M22.75 10.5C22.75 8.567 24.317 7 26.25 7H31.5C33.433 7 35 8.567 35 10.5V15.75C35 17.683 33.433 19.25 31.5 19.25H26.25C24.317 19.25 22.75 17.683 22.75 15.75V10.5Z" fill="white"/>
<path d="M26.25 22.75C24.317 22.75 22.75 24.317 22.75 26.25V31.5C22.75 33.433 24.317 35 26.25 35H31.5C33.433 35 35 33.433 35 31.5V26.25C35 24.317 33.433 22.75 31.5 22.75H26.25Z" fill="white"/>
</svg>
