<svg width="60" height="60" viewBox="0 0 60 60" fill="none" xmlns="http://www.w3.org/2000/svg">
<rect width="60" height="60" rx="10" fill="url(#paint0_linear_23_1438)"/>
<rect width="60" height="60" rx="10" fill="url(#paint1_linear_23_1438)" fill-opacity="0.2"/>
<path d="M49.2183 14.25L49.1937 14.4551C48.9148 16.6002 46.946 18.1137 44.8009 17.8348L44.2431 17.7609L42.8281 28.6301C42.7912 28.9254 42.7214 29.2166 42.6271 29.4955C42.0119 31.3084 40.2933 32.506 38.4107 32.506C38.222 32.506 38.0333 32.4937 37.8447 32.4691C36.6634 32.3174 35.6175 31.7144 34.8875 30.7711C34.1615 29.8277 33.8457 28.6588 33.9974 27.4816C34.3132 25.0494 36.5527 23.3267 38.9849 23.6426C39.6453 23.7287 40.2769 23.9625 40.8306 24.3193L42.2128 13.6758C42.2251 13.5855 42.2703 13.5076 42.34 13.4543C42.4097 13.401 42.5 13.3764 42.5902 13.3887L49.2183 14.25ZM32.2994 13.5568C32.8859 16.916 30.6341 20.1275 27.275 20.7141L26.2619 20.8904L29.3257 38.3918C29.4078 38.8553 29.4406 39.3269 29.4283 39.7904C29.3873 41.39 28.7925 42.9445 27.7466 44.1709C26.6884 45.4137 25.2201 46.2504 23.6123 46.5375C23.198 46.6113 22.7878 46.6441 22.3777 46.6441C20.9462 46.6441 19.5476 46.2053 18.35 45.3685C16.8078 44.2857 15.7824 42.6738 15.4584 40.8199C14.7939 36.9973 17.3574 33.3428 21.18 32.6742C22.2834 32.4814 23.4154 32.5553 24.4777 32.8834L21.463 15.6691C21.422 15.4435 21.5779 15.2262 21.8035 15.1851L32.2666 13.3517L32.2994 13.5568Z" fill="white" fill-opacity="0.65"/>
<defs>
<linearGradient id="paint0_linear_23_1438" x1="30" y1="0" x2="30" y2="60" gradientUnits="userSpaceOnUse">
<stop stop-color="#F74A6C"/>
<stop offset="1" stop-color="#F7002D"/>
</linearGradient>
<linearGradient id="paint1_linear_23_1438" x1="30" y1="0" x2="30" y2="60" gradientUnits="userSpaceOnUse">
<stop stop-color="#F74A6C"/>
<stop offset="1" stop-color="#F7002D"/>
</linearGradient>
</defs>
</svg>
