<svg width="60" height="60" viewBox="0 0 60 60" fill="none" xmlns="http://www.w3.org/2000/svg">
<rect width="60" height="60" rx="10" fill="url(#paint0_linear_23_1427)"/>
<rect width="60" height="60" rx="10" fill="url(#paint1_linear_23_1427)" fill-opacity="0.2"/>
<path d="M13.9331 27.3785C13.3336 25.7555 12.9106 24.0977 13.0162 22.3336C13.0867 21.2401 13.5101 20.3232 14.3211 19.5469C15.1671 18.7356 16.0136 17.8534 16.86 17.0424C17.953 15.9489 19.3635 15.9489 20.4568 17.0424L22.5019 19.0883C23.1718 19.7585 23.8415 20.3937 24.4764 21.064C25.6399 22.228 25.6399 23.6036 24.4764 24.768C23.6654 25.6144 22.8193 26.4257 21.9729 27.2374C21.7614 27.4487 21.7259 27.6252 21.8319 27.9073C22.3959 29.2479 23.1718 30.4122 24.0884 31.5412C25.8868 33.7636 27.9673 35.7389 30.4003 37.2914C30.9292 37.6086 31.4933 37.8553 32.0573 38.1378C32.3397 38.2789 32.5161 38.2435 32.7627 37.9968C33.5737 37.15 34.4198 36.3032 35.2666 35.4568C36.3596 34.3633 37.7701 34.3633 38.8634 35.4568C40.203 36.7973 41.5781 38.1378 42.9184 39.5135C44.0465 40.6424 44.0465 42.0534 42.9184 43.1824C42.1425 43.9583 41.3315 44.6991 40.6261 45.5104C39.5685 46.6748 38.2639 47.0625 36.7475 46.992C34.5612 46.8864 32.5161 46.1456 30.5767 45.1932C26.2394 43.0764 22.5019 40.1483 19.3985 36.4443C17.0715 33.7281 15.1671 30.7298 13.9331 27.3785ZM46.992 28.1222C46.1878 20.1753 39.8845 13.8482 31.951 13.0093C30.9933 12.908 30.1533 13.6442 30.1533 14.6077V14.6385C30.1533 15.4638 30.7789 16.1494 31.5992 16.2361C37.993 16.9103 43.1109 22.0017 43.7927 28.4201C43.8808 29.2472 44.5762 29.8752 45.4076 29.8662C46.3417 29.8558 47.0861 29.052 46.992 28.1222ZM30.1533 20.6977V20.7202C30.1533 21.4893 30.6919 22.1728 31.45 22.3028C33.0068 22.5696 34.4477 23.3139 35.5837 24.4504C36.7196 25.5868 37.4637 27.0283 37.7307 28.5858C37.8602 29.3442 38.5435 29.883 39.3126 29.883H39.3269C40.3183 29.883 41.0885 28.9908 40.9149 28.014C40.1096 23.4783 36.5267 19.8924 32.0154 19.1076C31.0409 18.9379 30.1533 19.7084 30.1533 20.6977Z" fill="white" fill-opacity="0.65"/>
<defs>
<linearGradient id="paint0_linear_23_1427" x1="30" y1="0" x2="30" y2="60" gradientUnits="userSpaceOnUse">
<stop stop-color="#54F777"/>
<stop offset="1" stop-color="#04BD18"/>
</linearGradient>
<linearGradient id="paint1_linear_23_1427" x1="30" y1="0" x2="30" y2="60" gradientUnits="userSpaceOnUse">
<stop stop-color="#54F777"/>
<stop offset="1" stop-color="#04BD18"/>
</linearGradient>
</defs>
</svg>
