<svg width="42" height="42" viewBox="0 0 42 42" fill="none" xmlns="http://www.w3.org/2000/svg">
<path d="M9.1 9.41168H32.9C33.8389 9.41168 34.6 10.1754 34.6 11.1175V23.0584C34.6 24.0005 33.8389 24.7642 32.9 24.7642H29.9716L30.0643 25.0548L30.4434 26.2078L30.66 26.8967L30.8356 27.4995L30.839 27.512C30.9032 27.7454 30.9584 27.965 31.005 28.1759H32.9C35.7167 28.1759 38 25.8847 38 23.0584V11.1175C38 8.29119 35.7167 6 32.9 6H9.1C6.28335 6 4 8.29119 4 11.1175V23.0584C4 25.8847 6.28335 28.1759 9.1 28.1759H12.0282L11.9357 27.886L11.5566 26.733L11.34 26.0441L11.1644 25.4413L11.161 25.4288C11.0968 25.1951 11.0415 24.9753 10.9949 24.7642H9.1C8.16112 24.7642 7.4 24.0005 7.4 23.0584V11.1175C7.4 10.1754 8.16112 9.41168 9.1 9.41168Z" fill="white"/>
<path d="M15.8103 18.1213C16.65 18.5427 16.9904 19.5673 16.5705 20.41L16.4598 20.6557C16.3945 20.8119 16.3166 21.0153 16.2378 21.2527C16.0252 21.8925 15.9 22.5207 15.9 23.0588C15.9 23.1536 15.9092 23.2618 15.9291 23.39L15.9838 23.6751L16.0702 24.0251L16.2653 24.6976L16.5476 25.5822L16.9222 26.7215L17.1334 27.3928L17.3002 27.9655C17.5189 28.7612 17.6 29.2947 17.6 29.8821C17.6 30.8367 17.4065 31.8077 17.0878 32.7671C16.9629 33.143 16.8367 33.4662 16.7251 33.723L16.5705 34.0567C16.1506 34.8993 15.1295 35.2409 14.2897 34.8195C13.45 34.3982 13.1096 33.3736 13.5295 32.5309L13.6402 32.2852C13.7055 32.1289 13.7834 31.9256 13.8622 31.6882C14.0748 31.0484 14.2 30.4202 14.2 29.8821C14.2 29.7873 14.1908 29.679 14.1709 29.5508L14.1162 29.2658L14.0298 28.9158L13.8347 28.2433L13.5524 27.3587L13.1778 26.2193L12.9666 25.5481L12.7998 24.9753C12.5811 24.1796 12.5 23.6461 12.5 23.0588C12.5 22.1042 12.6935 21.1332 13.0122 20.1738C13.1371 19.7979 13.2633 19.4747 13.3749 19.2179L13.5295 18.8842C13.9494 18.0416 14.9705 17.7 15.8103 18.1213Z" fill="white"/>
<path d="M23.2502 27.9655C23.4689 28.7612 23.55 29.2947 23.55 29.8821C23.55 30.8367 23.3565 31.8077 23.0378 32.7671C22.9129 33.143 22.7867 33.4662 22.6751 33.723L22.5205 34.0567C22.1006 34.8993 21.0795 35.2409 20.2397 34.8195C19.4 34.3982 19.0596 33.3736 19.4795 32.5309L19.5902 32.2852C19.6555 32.1289 19.7334 31.9256 19.8122 31.6882C20.0248 31.0484 20.15 30.4202 20.15 29.8821C20.15 29.7873 20.1408 29.679 20.1209 29.5508L20.0662 29.2658L19.9798 28.9158L19.7847 28.2433L19.5024 27.3587L19.1278 26.2193L18.9166 25.5481L18.7498 24.9753C18.5312 24.1796 18.45 23.6461 18.45 23.0588C18.45 22.1042 18.6435 21.1332 18.9622 20.1738C19.0871 19.7979 19.2133 19.4747 19.3249 19.2179L19.4795 18.8842C19.8994 18.0416 20.9205 17.7 21.7603 18.1213C22.6 18.5427 22.9404 19.5673 22.5205 20.41L22.4098 20.6557C22.3445 20.8119 22.2666 21.0153 22.1878 21.2527C21.9752 21.8925 21.85 22.5207 21.85 23.0588C21.85 23.1536 21.8592 23.2618 21.8791 23.39L21.9338 23.6751L22.0202 24.0251L22.2153 24.6976L22.4976 25.5822L22.8722 26.7215L23.0834 27.3928L23.2502 27.9655Z" fill="white"/>
<path d="M29.2002 27.9655C29.4189 28.7612 29.5 29.2947 29.5 29.8821C29.5 30.8367 29.3065 31.8077 28.9878 32.7671C28.8629 33.143 28.7367 33.4662 28.6251 33.723L28.4705 34.0567C28.0506 34.8993 27.0295 35.2409 26.1897 34.8195C25.35 34.3982 25.0096 33.3736 25.4295 32.5309L25.5402 32.2852C25.6055 32.1289 25.6834 31.9256 25.7622 31.6882C25.9748 31.0484 26.1 30.4202 26.1 29.8821C26.1 29.7873 26.0908 29.679 26.0709 29.5508L26.0162 29.2658L25.9298 28.9158L25.7347 28.2433L25.4524 27.3587L25.0778 26.2193L24.8666 25.5481L24.6998 24.9753C24.4812 24.1796 24.4 23.6461 24.4 23.0588C24.4 22.1042 24.5935 21.1332 24.9122 20.1738C25.0371 19.7979 25.1633 19.4747 25.2749 19.2179L25.4295 18.8842C25.8494 18.0416 26.8705 17.7 27.7103 18.1213C28.55 18.5427 28.8904 19.5673 28.4705 20.41L28.3598 20.6557C28.2945 20.8119 28.2166 21.0153 28.1378 21.2527C27.9252 21.8925 27.8 22.5207 27.8 23.0588C27.8 23.1536 27.8092 23.2618 27.8291 23.39L27.8838 23.6751L27.9702 24.0251L28.1653 24.6976L28.4476 25.5822L28.8222 26.7215L29.0334 27.3928L29.2002 27.9655Z" fill="white"/>
</svg>
