<svg width="42" height="42" viewBox="0 0 42 42" fill="none" xmlns="http://www.w3.org/2000/svg">
<path d="M14 29.75C12.25 29.75 7 23.3237 7 16.3238C7 9.32394 7 3.5 9.86364 3.5C12.2249 3.5 11.9901 5.31128 11.8351 6.50741C11.8021 6.76189 11.7727 6.98853 11.7727 7.16395C11.7727 7.26754 11.7707 7.39611 11.7683 7.5467C11.7475 8.8499 11.7005 11.8027 12.7273 14.4919C13.1922 15.7096 14.0661 16.6933 14.9403 17.6775C16.2198 19.1178 17.5 20.559 17.5 22.7358C17.5 26.3997 15.75 29.75 14 29.75Z" fill="white"/>
<path d="M29.75 27.125C33.5417 27.125 35 28.9545 35 31.5C35 34.0454 33.5417 35 29.75 35H13.8271C13.0991 35 12.25 34.5227 12.25 33.25C12.25 31.9772 14 31.5 14 31.5C14 31.5 25.9583 27.125 29.75 27.125Z" fill="white"/>
<path d="M32.5598 7.78301C32.1275 6.91855 32.4779 5.86737 33.3424 5.43514C34.2068 5.0029 35.258 5.3533 35.6902 6.21776L35.8494 6.56009C35.9643 6.82353 36.0941 7.15507 36.2227 7.54073C36.5508 8.52496 36.75 9.52111 36.75 10.5004C36.75 11.103 36.6665 11.6503 36.4414 12.4666L36.2697 13.0542L36.0522 13.7428L35.6666 14.9116L35.376 15.8191L35.1752 16.509L35.0863 16.8681L35.03 17.1605C35.0094 17.2921 35 17.4031 35 17.5004C35 18.0524 35.1289 18.6968 35.3477 19.3532C35.4289 19.5968 35.509 19.8054 35.5763 19.9657L35.6902 20.2178C36.1225 21.0822 35.7721 22.1334 34.9076 22.5656C34.0432 22.9979 32.992 22.6475 32.5598 21.783L32.4006 21.4407C32.2857 21.1772 32.1559 20.8457 32.0273 20.46C31.6992 19.4758 31.5 18.4797 31.5 17.5004C31.5 16.8978 31.5835 16.3505 31.8086 15.5342L31.9803 14.9466L32.1978 14.258L32.5834 13.0891L32.874 12.1817L33.0748 11.4917L33.1637 11.1327L33.22 10.8403C33.2406 10.7087 33.25 10.5977 33.25 10.5004C33.25 9.94841 33.1211 9.30394 32.9023 8.64753C32.8211 8.40401 32.741 8.19539 32.6737 8.03512L32.5598 7.78301Z" fill="white" fill-opacity="0.9"/>
<path d="M27.2174 5.43514C26.3529 5.86737 26.0025 6.91855 26.4348 7.78301L26.5487 8.03512C26.616 8.19539 26.6961 8.40401 26.7773 8.64753C26.9961 9.30394 27.125 9.94841 27.125 10.5004C27.125 10.5977 27.1156 10.7087 27.095 10.8403L27.0387 11.1327L26.9498 11.4917L26.749 12.1817L26.4584 13.0891L26.0728 14.258L25.8553 14.9466L25.6836 15.5342C25.4585 16.3505 25.375 16.8978 25.375 17.5004C25.375 18.4797 25.5742 19.4758 25.9023 20.46C26.0309 20.8457 26.1607 21.1772 26.2756 21.4407L26.4348 21.783C26.867 22.6475 27.9182 22.9979 28.7826 22.5656C29.6471 22.1334 29.9975 21.0822 29.5652 20.2178L29.4513 19.9657C29.384 19.8054 29.3039 19.5968 29.2227 19.3532C29.0039 18.6968 28.875 18.0524 28.875 17.5004C28.875 17.4031 28.8844 17.2921 28.905 17.1605L28.9613 16.8681L29.0502 16.509L29.251 15.8191L29.5416 14.9116L29.9272 13.7428L30.1447 13.0542L30.3164 12.4666C30.5415 11.6503 30.625 11.103 30.625 10.5004C30.625 9.52111 30.4258 8.52496 30.0977 7.54073C29.9691 7.15507 29.8393 6.82353 29.7244 6.56009L29.5652 6.21776C29.133 5.3533 28.0818 5.0029 27.2174 5.43514Z" fill="white" fill-opacity="0.9"/>
<path d="M21.0924 5.43514C20.2279 5.86737 19.8775 6.91855 20.3098 7.78301L20.4237 8.03512C20.491 8.19539 20.5711 8.40401 20.6523 8.64753C20.8711 9.30394 21 9.94841 21 10.5004C21 10.5977 20.9906 10.7087 20.97 10.8403L20.9137 11.1327L20.8248 11.4917L20.624 12.1817L20.3334 13.0891L19.9478 14.258L19.7303 14.9466L19.5586 15.5342C19.3335 16.3505 19.25 16.8978 19.25 17.5004C19.25 18.4797 19.4492 19.4758 19.7773 20.46C19.9059 20.8457 20.0357 21.1772 20.1506 21.4407L20.3098 21.783C20.742 22.6475 21.7932 22.9979 22.6576 22.5656C23.5221 22.1334 23.8725 21.0822 23.4402 20.2178L23.3263 19.9657C23.259 19.8054 23.1789 19.5968 23.0977 19.3532C22.8789 18.6968 22.75 18.0524 22.75 17.5004C22.75 17.4031 22.7594 17.2921 22.78 17.1605L22.8363 16.8681L22.9252 16.509L23.126 15.8191L23.4166 14.9116L23.8022 13.7428L24.0197 13.0542L24.1914 12.4666C24.4165 11.6503 24.5 11.103 24.5 10.5004C24.5 9.52111 24.3008 8.52496 23.9727 7.54073C23.8441 7.15507 23.7143 6.82353 23.5994 6.56009L23.4402 6.21776C23.008 5.3533 21.9568 5.0029 21.0924 5.43514Z" fill="white" fill-opacity="0.9"/>
</svg>
