<svg width="42" height="42" viewBox="0 0 42 42" fill="none" xmlns="http://www.w3.org/2000/svg">
<path d="M28 29.75C29.75 29.75 35 23.3237 35 16.3238C35 9.32394 35 3.5 32.1364 3.5C29.7751 3.5 30.0099 5.31128 30.1649 6.50741C30.1979 6.76189 30.2273 6.98853 30.2273 7.16395C30.2273 7.26754 30.2293 7.39611 30.2317 7.5467C30.2525 8.8499 30.2995 11.8027 29.2727 14.4919C28.8078 15.7096 27.9339 16.6933 27.0597 17.6775C25.7802 19.1178 24.5 20.559 24.5 22.7358C24.5 26.3997 26.25 29.75 28 29.75Z" fill="white"/>
<path d="M12.25 27.125C8.45833 27.125 7 28.9545 7 31.5C7 34.0454 8.45833 35 12.25 35H28.1729C28.9009 35 29.75 34.5227 29.75 33.25C29.75 31.9772 28 31.5 28 31.5C28 31.5 16.0417 27.125 12.25 27.125Z" fill="white"/>
<path d="M9.44025 7.78301C9.87248 6.91855 9.52209 5.86737 8.65762 5.43514C7.79316 5.0029 6.74198 5.3533 6.30975 6.21776L6.15062 6.56009C6.03571 6.82353 5.90586 7.15507 5.7773 7.54073C5.44923 8.52496 5.25 9.52111 5.25 10.5004C5.25 11.103 5.33354 11.6503 5.55864 12.4666L5.73032 13.0542L5.94777 13.7428L6.33337 14.9116L6.624 15.8191L6.8248 16.509L6.91369 16.8681L6.97004 17.1605C6.99057 17.2921 7 17.4031 7 17.5004C7 18.0524 6.87111 18.6968 6.6523 19.3532C6.57113 19.5968 6.491 19.8054 6.42371 19.9657L6.30975 20.2178C5.87752 21.0822 6.22791 22.1334 7.09238 22.5656C7.95684 22.9979 9.00802 22.6475 9.44025 21.783L9.59938 21.4407C9.71429 21.1772 9.84414 20.8457 9.9727 20.46C10.3008 19.4758 10.5 18.4797 10.5 17.5004C10.5 16.8978 10.4165 16.3505 10.1914 15.5342L10.0197 14.9466L9.80223 14.258L9.41663 13.0891L9.126 12.1817L8.9252 11.4917L8.83631 11.1327L8.77996 10.8403C8.75943 10.7087 8.75 10.5977 8.75 10.5004C8.75 9.94841 8.87889 9.30394 9.0977 8.64753C9.17887 8.40401 9.259 8.19539 9.32629 8.03512L9.44025 7.78301Z" fill="white" fill-opacity="0.9"/>
<path d="M14.7826 5.43514C15.6471 5.86737 15.9975 6.91855 15.5652 7.78301L15.4513 8.03512C15.384 8.19539 15.3039 8.40401 15.2227 8.64753C15.0039 9.30394 14.875 9.94841 14.875 10.5004C14.875 10.5977 14.8844 10.7087 14.905 10.8403L14.9613 11.1327L15.0502 11.4917L15.251 12.1817L15.5416 13.0891L15.9272 14.258L16.1447 14.9466L16.3164 15.5342C16.5415 16.3505 16.625 16.8978 16.625 17.5004C16.625 18.4797 16.4258 19.4758 16.0977 20.46C15.9691 20.8457 15.8393 21.1772 15.7244 21.4407L15.5652 21.783C15.133 22.6475 14.0818 22.9979 13.2174 22.5656C12.3529 22.1334 12.0025 21.0822 12.4348 20.2178L12.5487 19.9657C12.616 19.8054 12.6961 19.5968 12.7773 19.3532C12.9961 18.6968 13.125 18.0524 13.125 17.5004C13.125 17.4031 13.1156 17.2921 13.095 17.1605L13.0387 16.8681L12.9498 16.509L12.749 15.8191L12.4584 14.9116L12.0728 13.7428L11.8553 13.0542L11.6836 12.4666C11.4585 11.6503 11.375 11.103 11.375 10.5004C11.375 9.52111 11.5742 8.52496 11.9023 7.54073C12.0309 7.15507 12.1607 6.82353 12.2756 6.56009L12.4348 6.21776C12.867 5.3533 13.9182 5.0029 14.7826 5.43514Z" fill="white" fill-opacity="0.9"/>
<path d="M20.9076 5.43514C21.7721 5.86737 22.1225 6.91855 21.6902 7.78301L21.5763 8.03512C21.509 8.19539 21.4289 8.40401 21.3477 8.64753C21.1289 9.30394 21 9.94841 21 10.5004C21 10.5977 21.0094 10.7087 21.03 10.8403L21.0863 11.1327L21.1752 11.4917L21.376 12.1817L21.6666 13.0891L22.0522 14.258L22.2697 14.9466L22.4414 15.5342C22.6665 16.3505 22.75 16.8978 22.75 17.5004C22.75 18.4797 22.5508 19.4758 22.2227 20.46C22.0941 20.8457 21.9643 21.1772 21.8494 21.4407L21.6902 21.783C21.258 22.6475 20.2068 22.9979 19.3424 22.5656C18.4779 22.1334 18.1275 21.0822 18.5598 20.2178L18.6737 19.9657C18.741 19.8054 18.8211 19.5968 18.9023 19.3532C19.1211 18.6968 19.25 18.0524 19.25 17.5004C19.25 17.4031 19.2406 17.2921 19.22 17.1605L19.1637 16.8681L19.0748 16.509L18.874 15.8191L18.5834 14.9116L18.1978 13.7428L17.9803 13.0542L17.8086 12.4666C17.5835 11.6503 17.5 11.103 17.5 10.5004C17.5 9.52111 17.6992 8.52496 18.0273 7.54073C18.1559 7.15507 18.2857 6.82353 18.4006 6.56009L18.5598 6.21776C18.992 5.3533 20.0432 5.0029 20.9076 5.43514Z" fill="white" fill-opacity="0.9"/>
</svg>
