<svg width="42" height="42" viewBox="0 0 42 42" fill="none" xmlns="http://www.w3.org/2000/svg">
<path d="M28 29.75C29.75 29.75 35 23.3237 35 16.3238C35 9.32394 35 3.5 32.1364 3.5C29.7751 3.5 30.0099 5.31128 30.1649 6.50741C30.1979 6.76189 30.2273 6.98853 30.2273 7.16395C30.2273 7.26754 30.2293 7.39611 30.2317 7.5467C30.2525 8.8499 30.2995 11.8027 29.2727 14.4919C28.8078 15.7096 27.9339 16.6933 27.0597 17.6775C25.7802 19.1178 24.5 20.559 24.5 22.7358C24.5 26.3997 26.25 29.75 28 29.75Z" fill="white"/>
<path d="M12.25 27.125C8.45833 27.125 7 28.9545 7 31.5C7 34.0454 8.45833 35 12.25 35H28.1729C28.9009 35 29.75 34.5227 29.75 33.25C29.75 31.9772 28 31.5 28 31.5C28 31.5 16.0417 27.125 12.25 27.125Z" fill="white"/>
<path d="M15.0285 14.5031C16.0274 14.6153 16.9634 15.044 17.6818 15.7267C18.5257 16.5287 19.0002 17.616 19.0002 18.7502C19.0002 19.8843 18.5257 20.9716 17.6818 21.7736C16.9634 22.4564 16.0274 22.8851 15.0285 22.9972C14.7382 23.0299 14.5002 22.8014 14.5002 22.5236V14.9767C14.5002 14.6989 14.7382 14.4705 15.0285 14.5031ZM13.0236 14.5002C13.3014 14.5002 13.5299 14.7382 13.4972 15.0285C13.4513 15.4379 13.3518 15.8395 13.2014 16.2219C12.9864 16.7678 12.6707 17.264 12.2736 17.6818C11.8766 18.0996 11.4056 18.4313 10.8869 18.6574C10.3681 18.8836 9.81177 19.0002 9.25018 19.0002C8.68859 19.0002 8.1323 18.8836 7.61346 18.6574C7.09474 18.4313 6.62377 18.0996 6.22674 17.6818C5.82964 17.264 5.51392 16.7678 5.29901 16.2219C5.14853 15.8395 5.0491 15.4379 5.00311 15.0285C4.9705 14.7382 5.19893 14.5002 5.47674 14.5002H13.0236ZM18.7502 9.00018C19.8843 9.00018 20.9716 9.47466 21.7736 10.3185C22.4564 11.037 22.8851 11.973 22.9972 12.9719C23.0299 13.2622 22.8014 13.5001 22.5236 13.5002H14.9767C14.6989 13.5001 14.4705 13.2622 14.5031 12.9719C14.6153 11.973 15.044 11.037 15.7267 10.3185C16.5287 9.47466 17.616 9.00018 18.7502 9.00018ZM12.9719 5.00311C13.2622 4.9705 13.5001 5.19893 13.5002 5.47674V13.0236C13.5001 13.3014 13.2622 13.5299 12.9719 13.4972C12.5625 13.4513 12.1609 13.3518 11.7785 13.2014C11.2325 12.9864 10.7364 12.6707 10.3185 12.2736C9.90077 11.8766 9.56909 11.4056 9.34295 10.8869C9.11681 10.3681 9.00018 9.81177 9.00018 9.25018C9.00018 8.68859 9.11681 8.1323 9.34295 7.61346C9.56909 7.09474 9.90077 6.62377 10.3185 6.22674C10.7364 5.82964 11.2325 5.51392 11.7785 5.29901C12.1609 5.14853 12.5625 5.0491 12.9719 5.00311Z" fill="white" fill-opacity="0.9"/>
</svg>
