<svg width="42" height="42" viewBox="0 0 42 42" fill="none" xmlns="http://www.w3.org/2000/svg">
<path d="M14 29.75C12.25 29.75 7 23.3237 7 16.3238C7 9.32394 7 3.5 9.86364 3.5C12.2249 3.5 11.9901 5.31128 11.8351 6.50741C11.8021 6.76189 11.7727 6.98853 11.7727 7.16395C11.7727 7.26754 11.7707 7.39611 11.7683 7.5467C11.7475 8.8499 11.7005 11.8027 12.7273 14.4919C13.1922 15.7096 14.0661 16.6933 14.9403 17.6775C16.2198 19.1178 17.5 20.559 17.5 22.7358C17.5 26.3997 15.75 29.75 14 29.75Z" fill="white"/>
<path d="M29.75 27.125C33.5417 27.125 35 28.9545 35 31.5C35 34.0454 33.5417 35 29.75 35H13.8271C13.0991 35 12.25 34.5227 12.25 33.25C12.25 31.9772 14 31.5 14 31.5C14 31.5 25.9583 27.125 29.75 27.125Z" fill="white"/>
<path d="M26.9715 14.5031C25.9726 14.6153 25.0366 15.044 24.3182 15.7267C23.4743 16.5287 22.9998 17.616 22.9998 18.7502C22.9998 19.8843 23.4743 20.9716 24.3182 21.7736C25.0366 22.4564 25.9726 22.8851 26.9715 22.9972C27.2618 23.0299 27.4998 22.8014 27.4998 22.5236V14.9767C27.4998 14.6989 27.2618 14.4705 26.9715 14.5031ZM28.9764 14.5002C28.6986 14.5002 28.4701 14.7382 28.5028 15.0285C28.5487 15.4379 28.6482 15.8395 28.7986 16.2219C29.0136 16.7678 29.3293 17.264 29.7264 17.6818C30.1234 18.0996 30.5944 18.4313 31.1131 18.6574C31.6319 18.8836 32.1882 19.0002 32.7498 19.0002C33.3114 19.0002 33.8677 18.8836 34.3865 18.6574C34.9053 18.4313 35.3762 18.0996 35.7733 17.6818C36.1704 17.264 36.4861 16.7678 36.701 16.2219C36.8515 15.8395 36.9509 15.4379 36.9969 15.0285C37.0295 14.7382 36.8011 14.5002 36.5233 14.5002H28.9764ZM23.2498 9.00018C22.1157 9.00018 21.0284 9.47466 20.2264 10.3185C19.5436 11.037 19.1149 11.973 19.0028 12.9719C18.9701 13.2622 19.1986 13.5001 19.4764 13.5002H27.0233C27.3011 13.5001 27.5295 13.2622 27.4969 12.9719C27.3847 11.973 26.956 11.037 26.2733 10.3185C25.4713 9.47466 24.384 9.00018 23.2498 9.00018ZM29.0281 5.00311C28.7378 4.9705 28.4999 5.19893 28.4998 5.47674V13.0236C28.4999 13.3014 28.7378 13.5299 29.0281 13.4972C29.4375 13.4513 29.8391 13.3518 30.2215 13.2014C30.7675 12.9864 31.2636 12.6707 31.6815 12.2736C32.0992 11.8766 32.4309 11.4056 32.657 10.8869C32.8832 10.3681 32.9998 9.81177 32.9998 9.25018C32.9998 8.68859 32.8832 8.1323 32.657 7.61346C32.4309 7.09474 32.0992 6.62377 31.6815 6.22674C31.2636 5.82964 30.7675 5.51392 30.2215 5.29901C29.8391 5.14853 29.4375 5.0491 29.0281 5.00311Z" fill="white" fill-opacity="0.9"/>
</svg>
