<svg width="42" height="42" viewBox="0 0 42 42" fill="none" xmlns="http://www.w3.org/2000/svg">
<path d="M22.625 3.5C23.1773 3.5 23.625 3.94772 23.625 4.5V7.24609C25.5393 7.60923 27.3155 8.36199 28.8682 9.41895L30.8115 7.47656C31.2021 7.08627 31.8351 7.08612 32.2256 7.47656L34.5234 9.77441C34.9139 10.1649 34.9137 10.7979 34.5234 11.1885L32.5801 13.1309C33.6374 14.6838 34.3897 16.4603 34.7529 18.375H37.5C38.0523 18.375 38.5 18.8227 38.5 19.375V22.625C38.5 23.1773 38.0523 23.625 37.5 23.625H34.7529C34.3897 25.5394 33.6372 27.3154 32.5801 28.8682L34.5234 30.8115C34.9137 31.2021 34.9139 31.8351 34.5234 32.2256L32.2256 34.5234C31.8351 34.9139 31.2021 34.9137 30.8115 34.5234L28.8682 32.5801C27.3154 33.6372 25.5394 34.3897 23.625 34.7529V37.5C23.625 38.0523 23.1773 38.5 22.625 38.5H19.375C18.8227 38.5 18.375 38.0523 18.375 37.5V34.7529C16.4603 34.3897 14.6838 33.6374 13.1309 32.5801L11.1885 34.5234C10.7979 34.9138 10.1649 34.9139 9.77441 34.5234L7.47656 32.2256C7.08611 31.8351 7.08624 31.2021 7.47656 30.8115L9.41895 28.8682C8.36203 27.3155 7.61022 25.5392 7.24707 23.625H4.5C3.94772 23.625 3.5 23.1773 3.5 22.625V19.375C3.5 18.8227 3.94772 18.375 4.5 18.375H7.24707C7.61027 16.4605 8.36179 14.6837 9.41895 13.1309L7.47656 11.1885C7.08622 10.7979 7.0861 10.1649 7.47656 9.77441L9.77441 7.47656C10.1649 7.0861 10.7979 7.08622 11.1885 7.47656L13.1309 9.41895C14.6837 8.36175 16.4605 7.60928 18.375 7.24609V4.5C18.375 3.94772 18.8227 3.5 19.375 3.5H22.625ZM21 14.875C17.6173 14.875 14.875 17.6173 14.875 21C14.875 24.3827 17.6173 27.125 21 27.125C24.3827 27.125 27.125 24.3827 27.125 21C27.125 17.6173 24.3827 14.875 21 14.875Z" fill="white"/>
</svg>
