<svg width="24" height="24" viewBox="0 0 24 24" fill="none" xmlns="http://www.w3.org/2000/svg">
<path d="M9.91564 3.1579C10.1132 2.76273 9.95305 2.28221 9.55789 2.08463C9.16272 1.88705 8.6822 2.04722 8.48462 2.44238L8.41188 2.59887C8.35935 2.7193 8.29999 2.87085 8.24123 3.04715C8.09126 3.49706 8.00018 3.95242 8.00018 4.40007C8.00018 4.67552 8.03837 4.92572 8.14127 5.29886L8.21975 5.56746L8.31915 5.88224L8.49541 6.41655L8.62827 6.83138L8.72006 7.14676L8.76069 7.3109L8.78645 7.44457C8.79584 7.5047 8.80015 7.55545 8.80015 7.59993C8.80015 7.85225 8.74123 8.14685 8.64121 8.44691C8.6041 8.55823 8.56747 8.65359 8.53671 8.72686L8.48462 8.84211C8.28704 9.23727 8.44721 9.71779 8.84238 9.91537C9.23754 10.113 9.71806 9.95278 9.91564 9.55761L9.98839 9.40113C10.0409 9.28071 10.1003 9.12915 10.159 8.95285C10.309 8.50294 10.4001 8.04758 10.4001 7.59993C10.4001 7.32448 10.3619 7.07428 10.259 6.70114L10.1805 6.43254L10.0811 6.11776L9.90485 5.58345L9.77199 5.16862L9.6802 4.85324L9.63957 4.6891L9.61381 4.55543C9.60443 4.4953 9.60011 4.44455 9.60011 4.40007C9.60011 4.14775 9.65903 3.85315 9.75905 3.55309C9.79616 3.44177 9.83279 3.34641 9.86355 3.27314L9.91564 3.1579Z" fill="white"/>
<path d="M12.3578 2.08463C12.7529 2.28221 12.9131 2.76273 12.7155 3.1579L12.6634 3.27314C12.6327 3.34641 12.596 3.44177 12.5589 3.55309C12.4589 3.85315 12.4 4.14775 12.4 4.40007C12.4 4.44455 12.4043 4.4953 12.4137 4.55543L12.4394 4.6891L12.4801 4.85324L12.5719 5.16862L12.7047 5.58345L12.881 6.11776L12.9804 6.43254L13.0589 6.70114C13.1618 7.07428 13.2 7.32448 13.2 7.59993C13.2 8.04758 13.1089 8.50294 12.9589 8.95285C12.9001 9.12915 12.8408 9.28071 12.7883 9.40113L12.7155 9.55761C12.5179 9.95278 12.0374 10.113 11.6423 9.91537C11.2471 9.71779 11.0869 9.23727 11.2845 8.84211L11.3366 8.72686C11.3673 8.65359 11.404 8.55823 11.4411 8.44691C11.5411 8.14685 11.6 7.85225 11.6 7.59993C11.6 7.55545 11.5957 7.5047 11.5863 7.44457L11.5606 7.3109L11.5199 7.14676L11.4281 6.83138L11.2953 6.41655L11.119 5.88224L11.0196 5.56746L10.9411 5.29886C10.8382 4.92572 10.8001 4.67552 10.8001 4.40007C10.8001 3.95242 10.8911 3.49706 11.0411 3.04715C11.0999 2.87085 11.1592 2.7193 11.2118 2.59887L11.2845 2.44239C11.4821 2.04722 11.9626 1.88705 12.3578 2.08463Z" fill="white"/>
<path d="M15.5154 3.1579C15.713 2.76273 15.5528 2.28221 15.1576 2.08463C14.7625 1.88705 14.282 2.04722 14.0844 2.44239L14.0116 2.59887C13.9591 2.7193 13.8997 2.87085 13.841 3.04715C13.691 3.49706 13.5999 3.95242 13.5999 4.40007C13.5999 4.67552 13.6381 4.92572 13.741 5.29886L13.8195 5.56746L13.9189 5.88224L14.0952 6.41655L14.228 6.83138L14.3198 7.14676L14.3604 7.3109L14.3862 7.44457C14.3956 7.5047 14.3999 7.55545 14.3999 7.59993C14.3999 7.85225 14.341 8.14685 14.241 8.44691C14.2039 8.55823 14.1672 8.65359 14.1365 8.72686L14.0844 8.84211C13.8868 9.23727 14.047 9.71779 14.4421 9.91537C14.8373 10.113 15.3178 9.95278 15.5154 9.55761L15.5881 9.40113C15.6407 9.28071 15.7 9.12915 15.7588 8.95285C15.9088 8.50294 15.9998 8.04758 15.9998 7.59993C15.9998 7.32448 15.9616 7.07428 15.8587 6.70114L15.7803 6.43254L15.6809 6.11776L15.5046 5.58345L15.3717 5.16862L15.28 4.85324L15.2393 4.6891L15.2136 4.55543C15.2042 4.4953 15.1999 4.44455 15.1999 4.40007C15.1999 4.14775 15.2588 3.85315 15.3588 3.55309C15.3959 3.44177 15.4325 3.34641 15.4633 3.27314L15.5154 3.1579Z" fill="white"/>
<path fill-rule="evenodd" clip-rule="evenodd" d="M7.18957 5.60724C5.83962 6.62466 4.82222 8.05976 4.32945 9.72047C5.09185 9.5776 6.14685 9.4047 7.40097 9.26409C7.42427 9.90055 7.78537 10.5049 8.39516 10.8098C9.16565 11.195 10.0803 10.9758 10.6 10.3319C10.757 10.5262 10.9571 10.6908 11.195 10.8098C11.9655 11.195 12.8802 10.9758 13.3999 10.3319C13.5568 10.5262 13.7569 10.6908 13.9949 10.8098C14.8841 11.2543 15.9653 10.894 16.4098 10.0048L16.4162 9.99206L16.5 9.81185L16.5047 9.80093C16.5687 9.65438 16.6378 9.47735 16.7051 9.27612C17.9127 9.41448 18.9297 9.58165 19.6706 9.72047C19.1395 7.93069 17.9991 6.40295 16.4897 5.37767L16.4556 5.27424L16.3282 4.87632L16.2458 4.59324L16.2163 4.47418L16.2 4.38931C16.2017 4.27774 16.2311 4.09841 16.3075 3.8693C16.3345 3.78833 16.3603 3.72077 16.3807 3.67147L16.4201 3.58414C16.4954 3.42865 16.5463 3.26753 16.5743 3.10516C19.7965 4.76558 22 8.12545 22 12C22 17.5228 17.5228 22 12 22C6.47715 22 2 17.5228 2 12C2 8.24046 4.07462 4.96551 7.14148 3.25749C7.05348 3.62582 7.00018 4.00905 7.00018 4.40005C7.00018 4.79052 7.05825 5.13316 7.17725 5.56468L7.17927 5.572L7.18957 5.60724ZM7 13.5C8.22077 13.9069 10.1039 18.2879 10.7627 19.9049C7.37002 19.3781 4.68235 16.7196 4.112 13.3415C4.96833 13.2548 6.14617 13.2154 7 13.5ZM17 13.5C17.8538 13.2154 19.0317 13.2548 19.888 13.3415C19.3176 16.7196 16.63 19.3781 13.2373 19.9049C13.8961 18.2879 15.7792 13.9069 17 13.5Z" fill="white"/>
</svg>
