<svg width="41" height="41" viewBox="0 0 41 41" fill="none" xmlns="http://www.w3.org/2000/svg">
<path d="M21 6C16.3523 6 12.3461 6.67 8.9875 7.79337C7.24368 8.37664 5.96576 8.97293 5.1538 9.45034L4.75712 9.69816C4.14585 10.1071 3.86551 10.8638 4.06214 11.5741L8.31211 26.9265C8.55042 27.7874 9.41035 28.3179 10.2835 28.1427L10.9855 28.0217L11.3615 27.9641L11.9352 27.8848L11.5565 26.733L11.3399 26.0442L11.1644 25.4413L11.1609 25.4288C10.9265 24.5758 10.8111 23.9081 10.8007 23.1692L7.70099 11.9721L7.41661 12.1102C8.14256 11.7459 9.02452 11.3772 10.0627 11.03C13.0791 10.021 16.7228 9.41166 21 9.41166C25.2772 9.41166 28.9209 10.021 31.9373 11.03L32.4434 11.2053C33.1008 11.441 33.6888 11.6845 34.2074 11.9278L34.2973 11.9721L30.8174 24.5424L30.2498 24.4666L29.8615 24.42L30.0641 25.0548L30.4432 26.2078L30.6598 26.8967L30.8354 27.4996L30.8388 27.512C30.8872 27.6881 30.9305 27.8563 30.9689 28.0188L31.7165 28.1427C32.5896 28.3179 33.4496 27.7874 33.6879 26.9265L37.9379 11.5741C38.1345 10.8638 37.8542 10.1071 37.2429 9.69816L36.8462 9.45034C36.0342 8.97293 34.7563 8.37664 33.0125 7.79337C29.6539 6.67 25.6477 6 21 6Z" fill="white"/>
<path d="M12.7998 24.9754L12.9665 25.5481L13.1778 26.2193L13.5523 27.3587L13.8347 28.2433L14.0297 28.9158L14.1161 29.2658L14.1708 29.5508C14.1908 29.6791 14.1999 29.7873 14.1999 29.8821C14.1999 30.4202 14.0747 31.0484 13.8622 31.6882C13.7833 31.9256 13.7055 32.1289 13.6401 32.2852L13.5294 32.5309C13.1095 33.3736 13.4499 34.3982 14.2897 34.8195C15.1294 35.2409 16.1506 34.8993 16.5704 34.0567L16.725 33.723C16.8367 33.4662 16.9628 33.143 17.0877 32.7671C17.4064 31.8077 17.5999 30.8367 17.5999 29.8821C17.5999 29.2948 17.5188 28.7612 17.3001 27.9656L17.1333 27.3928L16.9221 26.7216L16.5475 25.5822L16.2652 24.6976L16.0701 24.0251L15.9838 23.6751L15.929 23.3901C15.9091 23.2619 15.8999 23.1536 15.8999 23.0588C15.8999 22.5208 16.0251 21.8925 16.2377 21.2527C16.3165 21.0153 16.3944 20.812 16.4597 20.6558L16.5704 20.41C16.9903 19.5674 16.6499 18.5427 15.8102 18.1214C14.9704 17.7001 13.9493 18.0416 13.5294 18.8843L13.3748 19.218C13.2632 19.4747 13.1371 19.7979 13.0122 20.1738C12.6935 21.1332 12.4999 22.1042 12.4999 23.0588C12.4999 23.6462 12.5811 24.1797 12.7998 24.9754Z" fill="white"/>
<path d="M24.8665 25.5481L24.6997 24.9754C24.481 24.1797 24.3999 23.6462 24.3999 23.0588C24.3999 22.1042 24.5934 21.1332 24.9121 20.1738C25.037 19.7979 25.1631 19.4747 25.2747 19.218L25.4293 18.8843C25.8492 18.0416 26.8703 17.7001 27.7101 18.1214C28.5499 18.5427 28.8902 19.5674 28.4704 20.41L28.3597 20.6558C28.2943 20.812 28.2164 21.0153 28.1376 21.2527C27.925 21.8925 27.7998 22.5208 27.7998 23.0588C27.7998 23.1536 27.809 23.2619 27.8289 23.3901L27.8837 23.6751L27.97 24.0251L28.1651 24.6976L28.4474 25.5822L28.822 26.7216L29.0332 27.3928L29.2 27.9656C29.2137 28.0153 29.2268 28.064 29.2394 28.1118C29.4285 28.8281 29.4998 29.3315 29.4998 29.8821C29.4998 30.8367 29.3063 31.8077 28.9876 32.7671C28.8627 33.143 28.7366 33.4662 28.6249 33.723L28.4704 34.0567C28.4179 34.162 28.356 34.2595 28.2862 34.3487C27.798 34.9728 26.9244 35.1882 26.1896 34.8195C25.3498 34.3982 25.0094 33.3736 25.4293 32.5309L25.54 32.2852C25.6054 32.1289 25.6832 31.9256 25.7621 31.6882C25.7754 31.6482 25.7883 31.6083 25.8009 31.5684C25.9898 30.9702 26.0998 30.3865 26.0998 29.8821C26.0998 29.7873 26.0907 29.6791 26.0707 29.5508L26.016 29.2658L25.9297 28.9158L25.7346 28.2433L25.4523 27.3587L25.0777 26.2194L24.8665 25.5481Z" fill="white"/>
<path d="M22.5204 20.41C22.9403 19.5674 22.5999 18.5427 21.7601 18.1214C20.9204 17.7001 19.8992 18.0416 19.4794 18.8843L19.3248 19.218C19.2131 19.4747 19.087 19.7979 18.9621 20.1738C18.6434 21.1332 18.4499 22.1042 18.4499 23.0588C18.4499 23.6462 18.531 24.1797 18.7497 24.9754L18.9165 25.5481L19.1277 26.2194L19.5023 27.3587L19.7846 28.2433L19.9797 28.9158L20.066 29.2658L20.1208 29.5508C20.1407 29.6791 20.1499 29.7873 20.1499 29.8821C20.1499 30.4202 20.0247 31.0484 19.8121 31.6882C19.7333 31.9256 19.6554 32.1289 19.5901 32.2852L19.4794 32.5309C19.0595 33.3736 19.3999 34.3982 20.2396 34.8195C21.0794 35.2409 22.1005 34.8993 22.5204 34.0567L22.675 33.723C22.7866 33.4662 22.9127 33.143 23.0376 32.7671C23.3563 31.8077 23.5499 30.8367 23.5499 29.8821C23.5499 29.2948 23.4687 28.7612 23.25 27.9656L23.0833 27.3928L22.872 26.7216L22.4975 25.5822L22.2151 24.6976L22.0201 24.0251L21.9337 23.6751L21.879 23.3901C21.859 23.2619 21.8499 23.1536 21.8499 23.0588C21.8499 22.5208 21.9751 21.8925 22.1876 21.2527C22.2665 21.0153 22.3443 20.812 22.4097 20.6558L22.5204 20.41Z" fill="white"/>
</svg>
